<?xml version="1.0" encoding="utf-8" ?>	<!-- Generator: Assembly 2.2 - http://assemblyapp.co -->	<svg version="1.1" xmlns="http://www.w3.org/2000/svg" xmlns:xlink="http://www.w3.org/1999/xlink" width="2048.00" height="1365.33" viewBox="0 0 2048.0 1365.3333333333335">		<g id="document" transform="matrix(1,0,0,1,1024.0,682.6666666666667)">			<defs>				<filter id="R4dNfMAv" x="-1.65%" y="0.00%" width="101.65%" height="104.30%" filterUnits="objectBoundingBox">					<feOffset dx="-30.91" dy="26.50" in="SourceAlpha" result="shadowOffsetOuter1" />					<feGaussianBlur stdDeviation="0.00" in="shadowOffsetOuter1" result="shadowBlurOuter1" />					<feFlood flood-color="#000000" flood-opacity="0.30" />					<feComposite in2="shadowBlurOuter1" operator="in" />					<feMerge>						<feMergeNode />						<feMergeNode in="SourceGraphic" />					</feMerge>				</filter>			</defs>			<path d="M-689.777,187.389 C-689.777,159.125 -699.952,135.101 -720.302,115.316 C-736.13,100.054 -773.438,80.8344 -832.227,57.6581 C-870.1,42.9609 -889.037,21.4805 -889.037,-6.78331 C-889.037,-24.8721 -882.819,-39.8519 -870.383,-51.7227 C-857.947,-63.5935 -842.119,-69.5289 -822.9,-69.5289 C-802.55,-69.5289 -784.602,-63.3108 -769.057,-50.8748 C-753.512,-38.4387 -742.631,-22.0457 -736.413,-1.69583 C-731.325,15.2624 -727.086,23.7416 -723.694,23.7416 C-719.172,23.7416 -716.911,21.4805 -716.911,16.9583 L-716.911,15.2624 C-720.302,-14.6972 -721.715,-36.4603 -721.15,-50.0269 L-720.302,-85.6392 C-719.737,-88.4656 -719.454,-90.1614 -719.454,-90.7267 C-719.454,-95.2489 -721.433,-97.51 -725.39,-97.51 C-728.781,-97.51 -731.325,-94.6836 -733.021,-89.0309 C-735.847,-77.7254 -743.196,-72.0726 -755.067,-72.0726 C-759.589,-72.0726 -764.676,-72.9205 -770.329,-74.6164 C-792.94,-81.3997 -809.898,-84.7913 -821.204,-84.7913 C-852.859,-84.7913 -879.427,-74.0511 -900.908,-52.5706 C-922.388,-31.0901 -933.128,-4.5222 -933.128,27.1332 C-933.128,74.6164 -901.756,110.229 -839.01,133.97 C-807.355,145.841 -788.277,153.331 -781.776,156.44 C-775.275,159.549 -768.068,164.778 -760.154,172.126 C-746.022,185.128 -738.956,202.651 -738.956,224.697 C-738.956,244.482 -745.174,260.309 -757.61,272.18 C-770.046,284.051 -786.439,289.986 -806.789,289.986 C-844.663,289.986 -874.905,275.289 -897.516,245.895 C-908.822,231.198 -916.17,210.848 -919.562,184.845 C-920.127,178.627 -922.671,175.518 -927.193,175.518 C-931.15,175.518 -933.128,178.627 -933.128,184.845 L-933.128,194.172 C-933.128,198.129 -932.846,206.043 -932.281,217.914 C-931.715,229.784 -931.433,236.568 -931.433,238.264 C-931.433,260.309 -932.281,276.985 -933.976,288.29 C-934.542,292.247 -934.824,295.639 -934.824,298.465 C-934.824,302.988 -932.846,305.249 -928.889,305.249 C-924.932,305.249 -921.823,301.857 -919.562,295.074 C-915.605,284.334 -909.669,278.963 -901.756,278.963 C-896.103,278.963 -889.602,280.942 -882.254,284.899 C-854.555,298.465 -831.096,305.249 -811.877,305.249 C-778.526,305.249 -749.838,293.802 -725.814,270.908 C-701.789,248.015 -689.777,220.175 -689.777,187.389 Z M-526.13,-238.264 C-526.13,-263.701 -538.849,-276.42 -564.286,-276.42 C-589.724,-276.42 -602.442,-263.136 -602.442,-236.568 C-602.442,-226.393 -598.768,-217.772 -591.419,-210.706 C-584.071,-203.64 -575.026,-200.108 -564.286,-200.108 C-538.849,-200.108 -526.13,-212.826 -526.13,-238.264 Z M-462.537,289.986 C-462.537,285.464 -466.494,283.203 -474.407,283.203 C-490.8,283.203 -503.236,282.072 -511.716,279.811 C-516.803,278.681 -519.771,276.137 -520.619,272.18 C-521.467,268.223 -521.891,254.939 -521.891,232.328 L-521.891,0.847913 C-521.891,-14.4145 -521.608,-25.4374 -521.043,-32.2207 C-521.043,-39.004 -521.043,-41.8304 -521.043,-40.6998 C-521.043,-63.3108 -523.304,-78.8559 -527.826,-87.3351 L-536.305,-82.2476 C-563.438,-65.8546 -595.942,-56.8102 -633.815,-55.1144 C-643.425,-54.5491 -648.23,-52.288 -648.23,-48.331 C-648.23,-43.8088 -645.121,-41.5477 -638.903,-41.5477 C-635.511,-41.5477 -632.685,-41.8304 -630.423,-42.3957 L-605.834,-43.2436 C-599.616,-43.2436 -596.083,-41.9717 -595.235,-39.428 C-594.387,-36.8842 -593.681,-28.5464 -593.115,-14.4145 L-592.267,242.503 C-592.267,263.418 -593.257,275.148 -595.235,277.692 C-597.213,280.235 -608.943,281.79 -630.423,282.355 C-641.729,282.355 -647.382,285.181 -647.382,290.834 C-647.382,294.791 -644.273,296.77 -638.055,296.77 C-634.098,296.77 -630.706,296.487 -627.88,295.922 L-539.697,294.226 C-528.391,294.226 -514.259,294.791 -497.301,295.922 C-483.169,297.052 -476.386,297.618 -476.951,297.618 C-467.341,297.618 -462.537,295.074 -462.537,289.986 Z M141.178,289.986 C141.178,285.464 138.069,283.486 131.85,284.051 L116.588,284.899 C100.76,283.768 91.8573,282.214 89.8788,280.235 C87.9003,278.257 86.9111,267.658 86.9111,248.439 L86.9111,39.004 C86.9111,2.2611 82.9542,-24.0242 75.0403,-39.8519 C60.3432,-69.8115 32.0794,-84.7913 -9.751,-84.7913 C-58.3647,-84.7913 -93.6944,-65.8546 -115.74,-27.9811 C-126.48,-65.8546 -157.005,-84.7913 -207.315,-84.7913 C-254.233,-84.7913 -288.997,-66.7025 -311.608,-30.5249 C-312.173,-57.6581 -312.739,-73.4858 -313.304,-78.008 C-313.869,-82.5302 -315.565,-84.7913 -318.391,-84.7913 C-321.218,-84.7913 -325.74,-81.6823 -331.958,-75.4643 C-334.784,-70.9421 -345.949,-65.5719 -365.451,-59.3539 C-384.953,-53.1359 -401.204,-49.7442 -414.206,-49.179 C-430.033,-48.0484 -439.219,-47.2005 -441.763,-46.6352 C-444.306,-46.0699 -445.578,-44.0915 -445.578,-40.6998 C-445.578,-36.7429 -441.904,-34.7644 -434.555,-34.7644 C-428.903,-34.7644 -423.533,-35.0471 -418.445,-35.6124 L-406.574,-35.6124 C-391.877,-35.6124 -383.681,-31.9381 -381.985,-24.5895 C-380.289,-17.2409 -379.441,7.63122 -379.441,50.0269 L-379.441,270.484 C-380.006,275.572 -381.985,279.105 -385.377,281.083 C-388.768,283.062 -401.204,284.051 -422.685,284.051 C-430.033,284.051 -433.708,286.029 -433.708,289.986 C-433.708,294.508 -429.751,296.77 -421.837,296.77 L-338.741,295.074 C-309.912,294.508 -288.714,295.074 -275.148,296.77 L-266.669,296.77 C-259.32,296.77 -255.646,294.791 -255.646,290.834 C-255.646,286.312 -258.755,284.051 -264.973,284.051 C-267.799,284.051 -270.908,284.334 -274.3,284.899 L-281.083,284.899 C-295.215,284.899 -303.553,283.344 -306.097,280.235 C-308.64,277.126 -309.912,267.093 -309.912,250.134 L-309.912,9.32704 C-309.912,-10.4576 -302.988,-26.8506 -289.138,-39.8519 C-275.289,-52.8533 -257.907,-59.3539 -236.992,-59.3539 C-216.077,-59.3539 -201.521,-53.1359 -193.324,-40.6998 C-185.128,-28.2638 -181.029,-5.65275 -181.029,27.1332 L-181.029,263.701 L-181.877,275.572 C-182.443,280.659 -187.247,283.486 -196.292,284.051 C-215.511,284.051 -226.817,284.334 -230.208,284.899 C-233.6,285.464 -235.296,287.16 -235.296,289.986 C-235.296,294.508 -231.904,296.77 -225.121,296.77 L-215.794,296.77 C-211.837,296.77 -200.39,296.487 -181.453,295.922 C-162.517,295.356 -147.396,295.074 -136.09,295.074 C-103.304,295.074 -84.0847,295.639 -78.432,296.77 L-72.4966,296.77 C-64.0174,296.77 -59.7779,294.791 -59.7779,290.834 C-59.7779,286.312 -63.4522,284.051 -70.8007,284.051 L-95.3902,284.051 C-103.869,284.051 -108.957,280.659 -110.653,273.876 C-111.218,271.05 -111.501,260.309 -111.501,241.655 L-111.501,81.3997 C-111.501,27.1332 -110.37,-4.23957 -108.109,-12.7187 C-103.021,-26.2853 -94.1184,-37.4495 -81.3997,-46.2113 C-68.681,-54.973 -54.973,-59.3539 -40.2759,-59.3539 C-19.3607,-59.3539 -4.5222,-52.4293 4.23957,-38.58 C13.0013,-24.7308 17.3822,-1.41319 17.3822,31.3728 L17.3822,241.655 C17.3822,262.005 16.6756,273.876 15.2624,277.268 C13.8492,280.659 8.90309,282.638 0.423957,283.203 L-20.7739,284.051 L-27.5572,284.051 C-33.7752,284.051 -36.8842,286.312 -36.8842,290.834 C-36.8842,294.791 -33.2099,296.77 -25.8614,296.77 C32.362,295.639 62.3216,295.074 64.0174,295.074 C82.6715,295.074 97.51,295.356 108.533,295.922 C119.556,296.487 125.632,296.77 126.763,296.77 C136.373,296.77 141.178,294.508 141.178,289.986 Z M332.806,289.138 C332.806,285.181 326.305,283.203 313.304,283.203 C292.954,282.638 282.496,282.072 281.931,281.507 C278.539,280.377 276.561,278.257 275.996,275.148 C275.43,272.039 275.148,262.005 275.148,245.047 L274.3,-170.431 L275.148,-230.632 C275.713,-263.984 273.735,-288.856 269.212,-305.249 L262.429,-302.705 L244.623,-294.226 C221.447,-283.486 196.292,-277.268 169.159,-275.572 C155.027,-275.006 147.961,-272.463 147.961,-267.941 C147.961,-262.853 151.918,-260.309 159.832,-260.309 L183.573,-261.157 L190.357,-261.157 C197.705,-261.157 202.227,-258.896 203.923,-254.374 C205.054,-252.678 205.619,-242.503 205.619,-223.849 L205.619,207.739 C205.619,248.439 205.336,270.484 204.771,273.876 C204.771,280.659 196.857,284.051 181.029,284.051 L158.984,284.051 C152.766,284.051 149.657,286.029 149.657,289.986 C149.657,295.639 153.896,298.183 162.375,297.618 C165.767,297.618 169.159,297.335 172.55,296.77 C213.25,295.074 235.861,294.226 240.383,294.226 L266.669,295.074 C295.498,296.204 310.478,296.77 311.608,296.77 L321.783,296.77 C329.132,296.77 332.806,294.226 332.806,289.138 Z M482.039,-238.264 C482.039,-263.701 469.32,-276.42 443.883,-276.42 C418.445,-276.42 405.726,-263.136 405.726,-236.568 C405.726,-226.393 409.401,-217.772 416.749,-210.706 C424.098,-203.64 433.142,-200.108 443.883,-200.108 C469.32,-200.108 482.039,-212.826 482.039,-238.264 Z M545.632,289.986 C545.632,285.464 541.675,283.203 533.761,283.203 C517.368,283.203 504.932,282.072 496.453,279.811 C491.366,278.681 488.398,276.137 487.55,272.18 C486.702,268.223 486.278,254.939 486.278,232.328 L486.278,0.847913 C486.278,-14.4145 486.561,-25.4374 487.126,-32.2207 C487.126,-39.004 487.126,-41.8304 487.126,-40.6998 C487.126,-63.3108 484.865,-78.8559 480.343,-87.3351 L471.864,-82.2476 C444.73,-65.8546 412.227,-56.8102 374.354,-55.1144 C364.744,-54.5491 359.939,-52.288 359.939,-48.331 C359.939,-43.8088 363.048,-41.5477 369.266,-41.5477 C372.658,-41.5477 375.484,-41.8304 377.745,-42.3957 L402.335,-43.2436 C408.553,-43.2436 412.086,-41.9717 412.934,-39.428 C413.782,-36.8842 414.488,-28.5464 415.053,-14.4145 L415.901,242.503 C415.901,263.418 414.912,275.148 412.934,277.692 C410.955,280.235 399.226,281.79 377.745,282.355 C366.44,282.355 360.787,285.181 360.787,290.834 C360.787,294.791 363.896,296.77 370.114,296.77 C374.071,296.77 377.463,296.487 380.289,295.922 L468.472,294.226 C479.778,294.226 493.909,294.791 510.868,295.922 C525,297.052 531.783,297.618 531.218,297.618 C540.827,297.618 545.632,295.074 545.632,289.986 Z M934.824,93.2704 C934.824,39.5693 920.41,-3.53297 891.581,-36.0363 C862.752,-68.5396 824.596,-84.7913 777.112,-84.7913 C734.151,-84.7913 701.931,-68.681 680.45,-36.4603 L680.45,-302.705 L677.059,-302.705 C673.667,-302.705 667.732,-300.727 659.252,-296.77 C630.423,-283.768 600.464,-277.268 569.374,-277.268 L557.503,-277.268 C551.285,-277.268 548.176,-275.289 548.176,-271.332 C548.176,-266.81 554.959,-264.549 568.526,-264.549 C587.745,-264.549 598.768,-263.701 601.594,-262.005 C608.943,-257.483 612.617,-226.675 612.617,-169.583 L612.617,271.332 C612.617,289.986 614.878,299.313 619.401,299.313 C623.357,299.313 629.293,296.628 637.207,291.258 C645.121,285.888 652.187,283.203 658.405,283.203 C665.188,283.203 678.189,286.877 697.409,294.226 C716.628,301.574 734.999,305.249 752.523,305.249 C802.832,305.249 845.793,284.616 881.406,243.351 C917.018,202.086 934.824,152.059 934.824,93.2704 Z M857.664,97.51 C857.664,163.647 846.076,215.653 822.9,253.526 C807.072,278.963 782.483,291.682 749.131,291.682 C714.084,291.682 693.452,279.811 687.234,256.07 C683.277,241.373 681.298,195.02 681.298,117.012 C681.298,42.3957 683.842,-2.2611 688.929,-16.9583 C694.017,-31.6554 703.627,-43.9502 717.758,-53.8425 C731.89,-63.7348 746.87,-68.681 762.698,-68.681 C792.657,-68.681 815.975,-54.2664 832.651,-25.4374 C849.326,3.39165 857.664,44.3741 857.664,97.51 Z " fill="#24682c" fill-opacity="1.00" stroke-width="6.16" stroke="#000000" stroke-linecap="round" stroke-linejoin="round" filter="url(#R4dNfMAv)" />		</g>	</svg>